<svg xmlns="http://www.w3.org/2000/svg" viewBox="0 0 410 404">
    <path fill="#41D1FF" d="M394.322 84.428l-23.953-43.553a15.422 15.422 0 00-24.13-3.803L205.122 174.453 64.12 37.072a15.422 15.422 0 00-24.13 3.803L16.038 84.428a15.932 15.932 0 003.543 19.333L190.6 388.92a18.3 18.3 0 0029.043 0l171.137-285.16a15.932 15.932 0 003.542-19.332z"/>
    <linearGradient id="a" x1="168.041" x2="257.44" y1="211.353" y2="92.179" gradientUnits="userSpaceOnUse"><stop offset="0" stop-color="#41D1FF"/><stop offset="1" stop-color="#BD34FE"/></linearGradient>
    <path fill="url(#a)" d="M205.122 380.057L54.768 129.542l26.046-27.18 124.308 190.493 118.916-196.48-125.684.093-27.172 45.215a15.425 15.425 0 005.32 20.975l40 23.905a18.303 18.303 0 0026.046-5.838l12.78-21.272 65.577 108.38z"/>
</svg>